<?xml version="1.0" encoding="UTF-8" standalone="no"?>
<svg
   xmlns:dc="http://purl.org/dc/elements/1.1/"
   xmlns:cc="http://creativecommons.org/ns#"
   xmlns:rdf="http://www.w3.org/1999/02/22-rdf-syntax-ns#"
   xmlns:svg="http://www.w3.org/2000/svg"
   xmlns="http://www.w3.org/2000/svg"
   xmlns:sodipodi="http://sodipodi.sourceforge.net/DTD/sodipodi-0.dtd"
   xmlns:inkscape="http://www.inkscape.org/namespaces/inkscape"
   height="48"
   width="48"
   version="1.1"
   id="svg14"
   sodipodi:docname="system-file-manager.svg"
   inkscape:version="1.0.1 (3bc2e813f5, 2020-09-07)">
  <metadata
     id="metadata20">
    <rdf:RDF>
      <cc:Work
         rdf:about="">
        <dc:format>image/svg+xml</dc:format>
        <dc:type
           rdf:resource="http://purl.org/dc/dcmitype/StillImage" />
        <dc:title></dc:title>
      </cc:Work>
    </rdf:RDF>
  </metadata>
  <defs
     id="defs18" />
  <sodipodi:namedview
     pagecolor="#ffffff"
     bordercolor="#666666"
     borderopacity="1"
     objecttolerance="10"
     gridtolerance="10"
     guidetolerance="10"
     inkscape:pageopacity="0"
     inkscape:pageshadow="2"
     inkscape:window-width="1920"
     inkscape:window-height="1022"
     id="namedview16"
     showgrid="false"
     inkscape:zoom="17.333333"
     inkscape:cx="24"
     inkscape:cy="24"
     inkscape:window-x="0"
     inkscape:window-y="26"
     inkscape:window-maximized="1"
     inkscape:current-layer="svg14" />
  <path
     d="m44.322082 27.405077a19.729762 19.729765 0 0 1 -19.729762 19.729765 19.729762 19.729765 0 0 1 -19.7297621-19.729765 19.729762 19.729765 0 0 1 19.7297621-19.7297632 19.729762 19.729765 0 0 1 19.729762 19.7297632z"
     fill="#78a188"
     opacity=".99"
     transform="matrix(1.1503549 0 0 1.1503549 -4.486125 -7.525565)"
     id="path2" />
  <g
     fill="#fff"
     id="g12">
    <rect
       height="10.5"
       ry="1.5"
       transform="matrix(.5 -.8660254 .8660254 .5 -.346227 .577406)"
       width="7.5"
       x="-6.159996"
       y="23.020954"
       id="rect4" />
    <rect
       height="10.5"
       ry="1.5"
       transform="matrix(.5 -.8660254 .8660254 .5 -.346227 .577406)"
       width="7.5"
       x="-17.730762"
       y="31.7798"
       id="rect6" />
    <rect
       fill-opacity=".427007"
       height="7.582497"
       ry="1.5"
       transform="matrix(-.5 .8660254 -.8660254 -.5 -.346227 .577406)"
       width="10.266729"
       x="-1.192889"
       y="-42.266144"
       id="rect8" />
    <rect
       fill-opacity=".427007"
       height="7.582498"
       ry="1.5"
       transform="matrix(-.5 .8660254 -.8660254 -.5 -.346227 .577406)"
       width="10.266729"
       x="7.565957"
       y="-30.695377"
       id="rect10" />
  </g>
</svg>
